HIERARCHY
ROOT Hips
{
	OFFSET 0.00000 0.00000 0.00000
	CHANNELS 6 Xposition Yposition Zposition Zrotation Yrotation Xrotation 
	JOINT LHipJoint
	{
		OFFSET 0 0 0
		CHANNELS 3 Zrotation Yrotation Xrotation
		JOINT LeftHip
		{
			OFFSET 1.62067 -1.77917 0.70989
			CHANNELS 3 Zrotation Yrotation Xrotation
			JOINT LeftKnee
			{
				OFFSET 2.34532 -6.44371 0.00000
				CHANNELS 3 Zrotation Yrotation Xrotation
				JOINT LeftAnkle
				{
					OFFSET 2.74224 -7.53425 0.00000
					CHANNELS 3 Zrotation Yrotation Xrotation
					JOINT LeftToe
					{
						OFFSET 0.17032 -0.46794 2.08086
						CHANNELS 3 Zrotation Yrotation Xrotation
						End Site
						{
							OFFSET 0.00000 -0.00000 1.07476
						}
					}
				}
			}
		}
	}
	JOINT RHipJoint
	{
		OFFSET 0 0 0
		CHANNELS 3 Zrotation Yrotation Xrotation
		JOINT RightHip
		{
			OFFSET -1.55811 -1.77917 0.70989
			CHANNELS 3 Zrotation Yrotation Xrotation
			JOINT RightKnee
			{
				OFFSET -2.33243 -6.40830 0.00000
				CHANNELS 3 Zrotation Yrotation Xrotation
				JOINT RightAnkle
				{
					OFFSET -2.78798 -7.65993 0.00000
					CHANNELS 3 Zrotation Yrotation Xrotation
					JOINT RightToe
					{
						OFFSET -0.22707 -0.62388 2.04059
						CHANNELS 3 Zrotation Yrotation Xrotation
						End Site
						{
							OFFSET -0.00000 -0.00000 1.07030
						}
					}
				}
			}
		}
	}
	JOINT lowerback
	{
		OFFSET 0 0 0
		CHANNELS 3 Zrotation Yrotation Xrotation
		JOINT Chest
		{
			OFFSET 0.02203 1.91565 0.07161
			CHANNELS 3 Zrotation Yrotation Xrotation
			JOINT Chest2
			{
				OFFSET 0.01740 1.90525 0.11636
				CHANNELS 3 Zrotation Yrotation Xrotation
				JOINT lowerneck
				{
					OFFSET 0 0 0
					CHANNELS 3 Zrotation Yrotation Xrotation
					JOINT Neck
					{
						OFFSET -0.10841 1.83566 0.05067
						CHANNELS 3 Zrotation Yrotation Xrotation
						JOINT Head
						{
							OFFSET 0.06601 1.74760 -0.50505
							CHANNELS 3 Zrotation Yrotation Xrotation
							End Site
							{
								OFFSET 0.03102 1.85215 -0.17697
							}
						}
					}
				}
				JOINT LeftCollar
				{
					OFFSET 0 0 0
					CHANNELS 3 Zrotation Yrotation Xrotation
					JOINT LeftShoulder
					{
						OFFSET 2.87059 1.35470 0.16111
CHANNELS 3 Zrotation Xrotation Yrotation
						JOINT LeftElbow
						{
OFFSET 0 -5.435920 0.000000
CHANNELS 3 Zrotation Xrotation Yrotation
							JOINT LeftWrist
							{
OFFSET 0 -3.254600 0.000000
CHANNELS 3 Zrotation Xrotation Yrotation
								JOINT lhand
								{
									OFFSET 0 0 0
CHANNELS 3 Zrotation Xrotation Yrotation
									JOINT LFingers
									{
OFFSET 0 -0.498240 0.000000
CHANNELS 3 Zrotation Xrotation Yrotation
										End Site
										{
OFFSET 0 -0.401700 0.000000
										}
									}
								}
								JOINT LThumb
								{
OFFSET 0 0.000000 0.000000
CHANNELS 3 Zrotation Xrotation Yrotation
									End Site
									{
OFFSET 0 -0.407830 0.407830
									}
								}
							}
						}
					}
				}
				JOINT RightCollar
				{
					OFFSET 0 0 0
					CHANNELS 3 Zrotation Yrotation Xrotation
					JOINT RightShoulder
					{
						OFFSET -2.86643 1.23488 0.45957
CHANNELS 3 Zrotation Xrotation Yrotation
						JOINT RightElbow
						{
OFFSET 0 -5.338300 0.000000
CHANNELS 3 Zrotation Xrotation Yrotation
							JOINT RightWrist
							{
OFFSET 0 -3.231480 0.000000
CHANNELS 3 Zrotation Xrotation Yrotation
								JOINT rhand
								{
									OFFSET 0 0 0
CHANNELS 3 Zrotation Xrotation Yrotation
									JOINT RFingers
									{
OFFSET 0 -0.463640 0.000000
CHANNELS 3 Zrotation Xrotation Yrotation
										End Site
										{
OFFSET 0 -0.373800 0.000000
										}
									}
								}
								JOINT RThumb
								{
OFFSET 0 0.000000 0.000000
CHANNELS 3 Zrotation Xrotation Yrotation
									End Site
									{
OFFSET 0 -0.379510 0.379510
									}
								}
							}
						}
					}
				}
			}
		}
	}
}
MOTION
Frames: 12
Frame Time: .0083333
4.5678 17.4674 2.4455 -6.2684 -9.7601 4.2763 0.0000 0.0000 0.0000 -21.7550 -4.4196 -15.0196 2.1406 9.1531 26.2754 0.5738 1.1561 -14.7734 0.5833 4.8903 13.5960 0.0000 0.0000 0.0000 4.1125 22.5050 -103.1637 -24.8141 -19.4350 104.2039 -6.4259 -10.5607 46.8118 -0.1887 2.7980 -7.7169 2.9773 -0.3694 12.5551 1.3360 -0.1294 5.0496 -0.2703 -0.0567 -1.7483 -2.4359 -0.5251 -12.6126 0.7372 -0.5027 36.1196 0.6425 -0.5036 14.5593 0.0000 0.0000 0.0000 55.9395 21.3319 5.7386 14.8295 -23.9081 3.1565 33.8266 -24.8116 24.9539 0.0 0.0 0.0 -7.1250 0.0 0.0 2.5585 0.7503 2.5273 0.0000 0.0000 0.0000 -53.04 22.3827 -1.8647 -20.9032 -31.7152 -5.999 -25.0436 20.6664 38.2626 0.0 0.0 0.0 7.1250 0.0 -0.0 14.7719 70.5192 -9.0647
4.5659 17.4646 2.4384 -6.2826 -9.7628 4.2839 0.0000 0.0000 0.0000 -21.7171 -4.3885 -15.1398 2.1638 9.1992 26.4204 0.5810 1.0634 -14.8230 0.5741 4.8523 13.4877 0.0000 0.0000 0.0000 4.0810 22.5402 -103.1786 -24.7581 -19.4483 104.0358 -6.5109 -10.3890 47.1586 -0.1984 2.8685 -7.9128 2.9472 -0.3669 12.6232 1.3605 -0.1273 5.0820 -0.2280 -0.0561 -1.7511 -2.3274 -0.5173 -12.7512 0.5564 -0.4507 36.0590 0.5568 -0.4897 14.5610 0.0000 0.0000 0.0000 56.0424 21.1158 6.451 14.7564 -23.8057 3.127 33.1863 -30.1457 36.4385 0.0 0.0 0.0 -7.1250 0.0 0.0 -0.3057 -11.4382 -0.3603 0.0000 0.0000 0.0000 -53.1864 22.2127 -1.9931 -20.8252 -31.6238 -5.958 -24.7382 20.8566 38.7467 0.0 0.0 0.0 7.1250 0.0 -0.0 15.8224 70.8744 -9.8435
4.5645 17.4686 2.4303 -6.4784 -9.7594 4.3477 0.0000 0.0000 0.0000 -21.4731 -4.3573 -15.3019 2.1849 9.2410 26.5523 0.5835 0.9633 -14.8107 0.5837 4.8920 13.6008 0.0000 0.0000 0.0000 4.2703 22.6204 -103.1008 -24.6793 -19.4667 103.7991 -6.5668 -9.8794 47.4165 -0.2308 3.0925 -8.5362 3.1212 -0.3661 12.5631 1.4343 -0.1102 5.1775 -0.2520 -0.0445 -1.6178 -2.1714 -0.5210 -12.8799 0.2747 -0.3919 35.8877 0.4223 -0.4789 14.5086 0.0000 -0.0000 0.0000 56.1169 21.043 6.36 14.8496 -23.9362 3.1647 33.5439 -27.5331 29.6563 0.0 0.0 0.0 -7.1250 0.0 0.0 1.4607 -4.3492 1.5677 0.0000 -0.0000 0.0000 -53.3353 21.9187 -2.3373 -20.6283 -31.3919 -5.8551 -24.4769 20.8114 38.7847 0.0 0.0 0.0 7.1250 0.0 -0.0 16.2232 70.8234 -10.0788
4.5631 17.4692 2.4198 -6.5614 -9.7561 4.3971 0.0000 0.0000 0.0000 -21.3428 -4.3356 -15.4904 2.2049 9.2804 26.6763 0.5772 0.9105 -14.7101 0.5839 4.8929 13.6034 0.0000 0.0000 0.0000 4.3255 22.6665 -103.1275 -24.6130 -19.4820 103.6003 -6.6151 -9.1482 47.6678 -0.2831 3.4221 -9.4563 3.2252 -0.3408 12.3963 1.4778 -0.0753 5.2886 -0.2706 -0.0232 -1.4103 -2.1876 -0.5445 -12.7740 0.1923 -0.3918 35.5951 0.3916 -0.4884 14.3484 0.0000 -0.0000 0.0000 56.2245 20.958 6.0188 14.9241 -24.0402 3.1949 33.7506 -27.4365 29.0388 0.0 0.0 0.0 -7.1250 0.0 0.0 1.7078 -3.7391 1.8163 0.0000 -0.0000 0.0000 -53.4416 21.7107 -2.7904 -20.4141 -31.138 -5.744 -24.6706 21.1427 38.6861 0.0 0.0 0.0 7.1250 0.0 -0.0 15.8303 70.7951 -9.8209
4.5619 17.4635 2.4090 -6.4816 -9.7447 4.4225 0.0000 0.0000 0.0000 -21.4001 -4.2627 -15.6891 2.2214 9.3129 26.7790 0.5728 0.8360 -14.6244 0.5487 4.7454 13.1838 0.0000 0.0000 0.0000 4.1541 22.6457 -103.3015 -24.5827 -19.4889 103.5094 -6.6770 -9.0676 47.9169 -0.2973 3.5063 -9.6916 3.1503 -0.3288 12.4061 1.4763 -0.0670 5.2727 -0.2311 -0.0203 -1.4322 -2.2955 -0.5604 -12.5456 0.2761 -0.4204 35.3813 0.4407 -0.5017 14.1990 0.0000 0.0000 0.0000 56.356 21.0757 5.6596 15.2900 -24.5485 3.3455 31.7294 -27.7586 31.2203 0.0 0.0 0.0 -7.1250 0.0 0.0 0.1114 -5.4943 0.1216 0.0000 0.0000 0.0000 -53.558 21.637 -3.0594 -20.2131 -30.8983 -5.6404 -25.3333 22.0744 38.2915 0.0 0.0 0.0 7.1250 0.0 -0.0 14.4196 70.6417 -8.8846
4.5606 17.4580 2.3990 -6.3850 -9.6336 4.4420 0.0000 0.0000 0.0000 -21.4778 -4.2230 -15.8594 2.2361 9.3414 26.8693 0.5813 0.6446 -14.6510 0.5876 4.9079 13.6459 0.0000 0.0000 0.0000 3.9365 22.5168 -103.4770 -24.5806 -19.4893 103.5031 -6.7012 -9.4390 47.9777 -0.2856 3.4367 -9.4972 3.0314 -0.3729 12.6067 1.4752 -0.1252 5.1475 -0.1566 -0.0540 -1.6733 -2.3412 -0.5607 -12.3710 0.3299 -0.4337 35.3512 0.4688 -0.5067 14.1462 0.0000 0.0000 0.0000 56.5022 21.2728 5.1999 15.7728 -25.2116 3.5486 29.7314 -25.6624 27.6215 0.0 0.0 0.0 -7.1250 0.0 0.0 -0.3406 -1.0925 -0.3471 0.0000 0.0000 0.0000 -53.7607 21.648 -3.0446 -20.1259 -30.7937 -5.5957 -25.2019 22.2495 38.0075 0.0 0.0 0.0 7.1250 0.0 -0.0 14.2353 70.3289 -8.671
4.5608 17.4541 2.3941 -6.2245 -9.5193 4.4333 0.0000 0.0000 0.0000 -21.6405 -4.2129 -15.9815 2.2571 9.3823 26.9988 0.5935 0.4520 -14.7258 0.6685 5.2286 14.5617 0.0000 0.0000 0.0000 3.6710 22.3237 -103.6239 -24.5911 -19.4869 103.5348 -6.7189 -9.8686 48.0106 -0.2362 3.1282 -8.6357 2.8998 -0.4076 12.6531 1.4358 -0.1845 5.1353 -0.1151 -0.0849 -1.7128 -2.3577 -0.5429 -12.3826 0.4037 -0.4290 35.3529 0.5023 -0.4970 14.1495 -0.0000 -0.0000 0.0000 56.6376 21.2086 5.5573 15.2536 -24.4982 3.3304 32.1066 -27.0997 29.4607 0.0 0.0 0.0 -7.1250 0.0 0.0 0.6850 -3.7157 0.728 -0.0000 -0.0000 0.0000 -53.9213 21.6755 -2.9087 -20.2199 -30.9063 -5.6438 -24.7826 21.9051 38.4706 0.0 0.0 0.0 7.1250 0.0 -0.0 15.3927 70.6298 -9.4891
4.5613 17.4484 2.3938 -6.1401 -9.4798 4.4020 0.0000 0.0000 0.0000 -21.7316 -4.1035 -16.0822 2.2797 9.4258 27.1365 0.5962 0.2896 -14.6976 0.6754 5.2550 14.6373 0.0000 0.0000 0.0000 3.5157 22.2167 -103.7076 -24.6056 -19.4837 103.5781 -6.7342 -10.3465 48.0336 -0.1784 2.7204 -7.5012 2.8703 -0.4050 12.5523 1.4003 -0.1926 5.2297 -0.1351 -0.0868 -1.5600 -2.4547 -0.5606 -12.5038 0.6018 -0.4939 35.3358 0.5898 -0.5107 14.1709 0.0000 0.0000 0.0000 56.847 20.8489 6.3328 15.1222 -24.3161 3.2761 30.555 -26.6165 30.4099 0.0 0.0 0.0 -7.1250 0.0 0.0 -0.3845 -4.2968 -0.4123 0.0000 0.0000 0.0000 -53.9676 21.746 -2.8248 -20.4355 -31.1635 -5.755 -25.3704 22.2495 39.1613 0.0 0.0 0.0 7.1250 0.0 -0.0 15.5425 71.4738 -9.8713
4.5609 17.4429 2.3904 -6.3317 -9.4082 4.3966 0.0000 0.0000 0.0000 -21.5129 -3.9695 -16.1727 2.2960 9.4571 27.2359 0.5948 0.1175 -14.6168 0.6513 5.1624 14.3725 0.0000 0.0000 0.0000 3.6674 22.1881 -103.6651 -24.6141 -19.4817 103.6035 -6.7009 -10.8504 47.8697 -0.1575 2.5573 -7.0486 3.1102 -0.4366 12.4803 1.4320 -0.2134 5.3501 -0.2349 -0.0920 -1.3955 -2.5008 -0.5961 -12.6989 0.7496 -0.5796 35.3301 0.6446 -0.5332 14.2146 -0.0000 0.0000 0.0000 56.9808 20.6506 7.1267 13.6086 -22.1724 2.6786 42.0357 -39.278 45.2406 0.0 0.0 0.0 -7.1250 0.0 0.0 1.1670 -23.6391 1.5372 -0.0000 0.0000 0.0000 -53.9625 21.7217 -2.9214 -20.6227 -31.3852 -5.8522 -25.7871 22.5551 39.5142 0.0 0.0 0.0 7.1250 0.0 -0.0 15.4769 71.9452 -9.9885
4.5624 17.4390 2.3880 -6.3551 -9.3362 4.3127 0.0000 0.0000 0.0000 -21.5009 -3.9106 -16.1392 2.3076 9.4794 27.3067 0.6003 0.0338 -14.6540 0.6350 5.0984 14.1895 0.0000 0.0000 0.0000 3.6947 22.0622 -103.5740 -24.6282 -19.4785 103.6458 -6.6563 -11.2547 47.6714 -0.1544 2.5317 -6.9776 3.2117 -0.4691 12.4927 1.4235 -0.2471 5.4281 -0.2963 -0.1060 -1.3214 -2.5131 -0.6067 -12.7586 0.8101 -0.6115 35.3261 0.6664 -0.5401 14.2271 -0.0000 0.0000 0.0000 57.1169 20.6063 8.3375 12.9035 -21.1457 2.4184 48.789 -47.8153 53.0204 0.0 0.0 0.0 -7.1250 0.0 0.0 0.2795 -33.6337 0.3875 -0.0000 0.0000 0.0000 -54.034 21.6712 -3.0806 -20.6518 -31.4196 -5.8674 -25.2562 22.3708 39.8628 0.0 0.0 0.0 7.1250 0.0 -0.0 16.7281 72.0875 -10.8606
4.5666 17.4344 2.3908 -6.0981 -9.3351 4.1645 0.0000 0.0000 0.0000 -21.8221 -3.8819 -16.0261 2.3163 9.4960 27.3594 0.6085 0.0362 -14.7549 0.6337 5.0932 14.1747 0.0000 0.0000 0.0000 3.4522 21.8781 -103.5364 -24.6447 -19.4747 103.6955 -6.7114 -11.4237 47.8757 -0.1161 2.1972 -6.0509 3.0502 -0.4569 12.5759 1.3541 -0.2469 5.4205 -0.2773 -0.1080 -1.3747 -2.6049 -0.6253 -12.7295 0.9058 -0.6488 35.4122 0.7162 -0.5563 14.2617 0.0000 0.0000 0.0000 57.2451 20.8127 9.1924 12.8720 -21.0994 2.407 50.3957 -52.1716 58.6473 0.0 0.0 0.0 -7.1250 0.0 0.0 -2.5673 -38.7498 -3.6108 0.0000 0.0000 0.0000 -54.2214 21.6787 -3.231 -20.4271 -31.1535 -5.7507 -25.1036 22.6786 40.1716 0.0 0.0 0.0 7.1250 0.0 -0.0 17.4160 72.3192 -11.4025
4.5685 17.4312 2.3910 -5.9540 -9.3933 4.1516 0.0000 0.0000 0.0000 -21.9938 -3.8580 -16.0541 2.3189 9.5009 27.3751 0.6091 0.0365 -14.7618 0.6624 5.2054 14.4953 0.0000 0.0000 0.0000 3.2649 21.8273 -103.6238 -24.6454 -19.4745 103.6976 -6.8185 -11.2191 48.3018 -0.0630 1.6193 -4.4545 2.9496 -0.4270 12.5877 1.3015 -0.2187 5.3929 -0.2791 -0.0952 -1.4094 -2.6103 -0.6437 -12.7935 0.9396 -0.6856 35.5171 0.7256 -0.5691 14.3256 0.0000 -0.0000 0.0000 57.3978 20.9627 8.7775 13.3495 -21.7971 2.5816 45.1856 -47.9566 57.6984 0.0 0.0 0.0 -7.1250 0.0 0.0 -3.6150 -35.914 -5.0532 0.0000 -0.0000 0.0000 -54.3682 21.67 -3.373 -20.1471 -30.8192 -5.6065 -25.6565 23.2897 39.9863 0.0 0.0 0.0 7.1250 0.0 -0.0 16.3657 72.3393 -10.7111
